<?xml version="1.0" encoding="UTF-8"?>
<svg xmlns="http://www.w3.org/2000/svg" version="1.1" viewBox="0 0 351.3 351.28">
  <!-- Generator: Adobe Illustrator 30.6.0, SVG Export Plug-In . SVG Version: 2.1.4 Build 109)  -->
  <defs>
    <style>
      .st0 {
        fill: #fff;
      }
    </style>
  </defs>
  <g id="fondo">
    <path class="st0" d="M272.5,319.29l-193.44.06c-25.23,0-47.03-20.93-47.04-46.37l-.08-193.71c-.01-26.87,22.3-47.35,48.66-47.34l222.87.09c8.8,0,15.8,7.01,15.8,15.79l.08,222.9c0,25.81-19.97,48.57-46.85,48.58ZM255.41,119.35l.06,74.31c0,9.19,7.64,16.07,16.29,15.86s15.59-6.84,15.58-15.91l-.05-113.67c0-8.6-7.57-15.2-15.93-15.2h-113.69c-9,0-15.68,7.26-15.89,15.57s6.17,16.26,15.08,16.28l75.14.12L101.08,227.54c-6.6,6.59-5.91,16.74.31,22.76s15.91,6.36,22.37-.07l108.25-107.77,23.39-23.11Z"/>
  </g>
  <g id="lineas">
    <path d="M256.45,119.85l-23.39,23.11-108.25,107.77c-6.46,6.43-16.35,5.9-22.37.07s-6.91-16.17-.31-22.76L233.04,97.21l-75.14-.12c-8.91-.01-15.28-8.18-15.08-16.28s6.89-15.57,15.89-15.57h113.69c8.36,0,15.93,6.6,15.93,15.2l.05,113.67c0,9.08-7.26,15.71-15.58,15.91s-16.28-6.67-16.29-15.86l-.06-74.31Z"/>
    <path d="M272.52,351.24l-193.23.05C35.36,351.29,0,315.17,0,271.41V80.01C0,36.22,35.36.14,79.29.12L302.84,0c26.58-.01,48.46,21.04,48.46,47.84l-.04,224.29c0,43.04-35.25,79.1-78.73,79.11ZM272.59,319.28c26.88,0,46.86-22.76,46.85-48.58l-.08-222.9c0-8.78-7-15.79-15.8-15.79l-222.87-.09c-26.36-.01-48.67,20.47-48.66,47.34l.08,193.71c.01,25.44,21.81,46.38,47.04,46.37l193.44-.06Z"/>
  </g>
</svg>