<?xml version="1.0" encoding="UTF-8"?>
<svg xmlns="http://www.w3.org/2000/svg" viewBox="0 0 351.3 351.28">
  <defs>
    <style>
      .cls-1 {
        fill: #fff;
      }
    </style>
  </defs>
  <g id="fondo">
    <path class="cls-1" d="M337.73,291.68c0,25.53-20.7,46.23-46.23,46.23H57.09c-25.53,0-46.23-20.7-46.23-46.23V60.67c0-25.53,20.7-46.23,46.23-46.23h265.09c8.59,0,15.55,6.96,15.55,15.55v261.7Z"/>
  </g>
  <g id="lineas">
    <path d="M282.41,85.39l-12.28,12.13-129.24,128.99c-3.39,3.38-8.58,3.1-11.75.04s-3.63-8.49-.16-11.95l141.14-141.1-90.56-.06c-4.68,0-8.02-4.3-7.92-8.55s3.61-8.17,8.34-8.17h110.8c4.39,0,8.36,3.46,8.36,7.98l.03,112.12c0,4.76-3.81,8.25-8.18,8.35s-8.55-3.5-8.55-8.33l-.03-91.46Z"/>
    <path d="M336.09.68H43.18C17.65.68-3.05,21.37-3.05,46.9v258.55c0,25.53,20.7,46.23,46.23,46.23h262.23c25.53,0,46.23-20.7,46.23-46.23V16.22c0-8.59-6.96-15.55-15.55-15.55ZM337.73,291.68c0,25.53-20.7,46.23-46.23,46.23H57.09c-25.53,0-46.23-20.7-46.23-46.23V60.67c0-25.53,20.7-46.23,46.23-46.23h265.09c8.59,0,15.55,6.96,15.55,15.55v261.7Z"/>
  </g>
</svg>