<?xml version="1.0" encoding="UTF-8"?>
<svg id="Capa_1" data-name="Capa 1" xmlns="http://www.w3.org/2000/svg" viewBox="0 0 457.16 138.6">
  <style>
    path {
      fill: #fff;
      fill-rule: evenodd;
    }
  </style>
  <path d="M457.16,20.83v97.23c-1.95,8.39-2.14,17.32-12.57,19.02-17.03,2.77-42.87,3.21-43.76-11.5l-1.34-22.27.34-83.7c.03-6.56,2.55-14.86,8.81-16.88,11.67-3.77,24.11-3.06,35.92-1.2,11.28,1.78,10.48,11.28,12.61,19.29ZM437.01,112.99l-.03-87.78c0-1.9-.73-5.4-2.1-6.1-3.36-1.73-10.98-1.61-13.43.33-.98.78-1.77,3.53-1.77,5.11v88.5c0,2.01.77,5.04,1.83,6.09,1.87,1.86,8.66,2.28,13.27.38,1.4-.58,2.22-4.13,2.22-6.53Z"/>
  <path d="M74.14,115.43l.19-115.22,19.73.05.02,100.61c0,8.18-.37,15.91-1.62,23.7-2.69,16.76-29.12,11.06-45.66,11.07-12.25,0-24.01,3.11-36.18-1.12C4.36,132.33.23,125.23.22,117.75L0,.23l20.15-.02.03,111.6c0,1.97.81,5.12,2.01,5.94s4.71,1.47,6.23,1.31l5.97-.62c1.46-.15,2.72-3.49,2.72-5.38l.03-112.58,19.98-.13.32,111.51c0,1.56.6,4.66,1.46,5.54,3.02,3.08,15.25,1.88,15.25-1.97Z"/>
  <path d="M292.14,106.96l-16.96-.15v29.72s-19.89-.1-19.89-.1V29.37c0-12.97,1.04-25.48,11.66-27.67,10.41-2.15,20.51-2.05,31.05-.4,8.27,1.3,13.86,8.1,13.89,17.32l.29,117.78-19.93.22-.1-29.65ZM292.05,90.27V25.59c-.33-2.2-.7-5.1-1.81-6.14-1.8-1.68-9.65-2.21-13.48-.26-1.14.58-1.72,3.65-1.72,5.23v66.15s17-.29,17-.29Z"/>
  <path d="M147.5,106.78l-17.02.05v29.72s-19.73-.15-19.73-.15l.25-117.68c.02-10.23,6.28-17.16,15.67-17.94,10.7-.88,21.3-1.63,31.55,2.12,6.04,2.21,9.15,9.96,9.16,16.79l.19,116.7-19.96.26-.12-29.87ZM147.52,90.44l-.27-70.05c-5.11-3.75-12.74-3.81-16.63.51l-.4,69.57,17.31-.03Z"/>
  <path d="M219.87,118.23l.66-27.74,19.19-.05c-.49,19.7,4.12,44.54-13.48,46.96-10.38,1.43-20.59,1.43-30.95-.42s-12.06-13.9-12.02-26.38l.27-90.95c.02-6.66,2.74-14.83,8.98-16.86,11.35-3.69,23.29-3.28,34.89-1.25,16.08,2.81,12.02,26.92,12.3,45.54l-19.07-.07-.6-26.85c-5.03-3.32-12.66-3.69-16.43.86l.02,96.72c3.17,4.18,12.53,4.31,16.25.51Z"/>
  <path d="M349.86,119.28c3.3,2.79,14.79,1.53,14.84-2.27l.3-26.45,19.53-.02c-.6,19.59,3.51,43.87-12.76,46.62-9.9,1.67-19.75,1.62-29.78.26-8.63-1.17-13.86-8.03-13.87-17.26l-.04-100.45c0-6.78,2.83-14.76,8.97-16.91,10.65-3.73,21.72-2.96,32.72-1.67,18.78,2.19,14.01,24.38,14.79,45.9l-19.56-.05-.3-25.22c-.03-2.43-5.64-4.66-7.94-4.18l-6.45,1.35c-1.63.34-2.38,4.62-2.38,6.7l.02,88.58c0,1.39.99,4.29,1.92,5.08Z"/>
</svg>
